<?xml version="1.0" standalone="no"?>
<!DOCTYPE svg PUBLIC "-//W3C//DTD SVG 20010904//EN"
 "http://www.w3.org/TR/2001/REC-SVG-20010904/DTD/svg10.dtd">
<svg version="1.0" xmlns="http://www.w3.org/2000/svg"
 width="1394.000000pt" height="740.000000pt" viewBox="0 0 1394.000000 740.000000"
 preserveAspectRatio="xMidYMid meet">

<g transform="translate(0.000000,740.000000) scale(0.100000,-0.100000)"
fill="#002B99" stroke="none">
<path d="M8770 5864 c-14 -2 -59 -9 -100 -15 -380 -54 -724 -236 -936 -494
-204 -247 -302 -616 -249 -941 59 -364 257 -617 645 -822 172 -91 344 -150
845 -288 480 -134 619 -187 687 -262 73 -81 88 -221 35 -336 -44 -95 -126
-153 -261 -184 -113 -26 -478 -22 -663 6 -261 41 -533 119 -720 207 -367 173
-606 470 -689 857 -49 230 -63 578 -64 1536 l0 612 -540 0 -540 0 0 -130 c0
-71 -2 -130 -5 -130 -2 0 -53 34 -113 75 -141 96 -278 164 -422 209 -217 66
-255 71 -565 71 -253 0 -290 -3 -385 -23 -648 -141 -1160 -547 -1460 -1157
-181 -368 -251 -772 -210 -1210 37 -387 204 -794 451 -1099 492 -610 1305
-887 2041 -697 233 61 505 200 618 316 19 19 37 35 42 35 4 0 9 -66 10 -148
l3 -147 538 -3 537 -2 0 162 c0 90 3 207 7 260 l6 97 61 -63 c237 -243 596
-438 984 -535 282 -71 454 -91 782 -91 140 0 305 5 365 10 293 28 621 140 850
291 109 72 269 233 339 341 135 208 194 443 183 732 -8 236 -63 414 -180 589
-117 175 -280 308 -521 427 -190 93 -365 150 -851 274 -454 115 -558 149 -648
210 -84 56 -112 111 -112 216 0 61 5 84 27 125 71 136 218 198 463 199 306 0
526 -115 639 -333 l46 -89 37 9 c73 16 779 210 861 236 98 31 97 22 26 173
-280 593 -918 936 -1728 929 -78 -1 -152 -3 -166 -5z m-3382 -1040 c399 -82
716 -393 812 -796 144 -610 -158 -1195 -710 -1374 -76 -24 -104 -28 -255 -31
-240 -7 -339 18 -553 138 -98 56 -250 204 -321 314 -143 219 -194 394 -193
660 1 323 106 586 322 803 159 161 323 246 565 296 54 11 262 5 333 -10z"/>
</g>
</svg>
