<?xml version="1.0" standalone="no"?>
<!DOCTYPE svg PUBLIC "-//W3C//DTD SVG 20010904//EN"
 "http://www.w3.org/TR/2001/REC-SVG-20010904/DTD/svg10.dtd">
<svg version="1.0" xmlns="http://www.w3.org/2000/svg"
 width="1067.000000pt" height="313.000000pt" viewBox="0 0 1067.000000 313.000000"
 preserveAspectRatio="xMidYMid meet">

<g transform="translate(0.000000,313.000000) scale(0.100000,-0.100000)"
fill="#002B99" stroke="none">
<path d="M3713 3110 c-56 -12 -97 -34 -150 -83 -110 -101 -137 -272 -65 -413
29 -58 112 -129 180 -155 73 -27 193 -23 268 10 162 72 245 277 177 439 -67
160 -225 238 -410 202z"/>
<path d="M2550 1580 l0 -1530 275 0 275 0 0 1530 0 1530 -275 0 -275 0 0
-1530z"/>
<path d="M841 2184 c-249 -45 -465 -179 -610 -377 -43 -59 -131 -221 -145
-267 -62 -209 -81 -357 -65 -535 25 -298 111 -501 294 -694 181 -190 397 -287
670 -298 100 -4 135 -2 209 16 146 35 278 111 381 222 25 27 48 49 50 49 3 0
5 -56 5 -125 l0 -125 268 2 267 3 3 1048 2 1047 -270 0 -270 0 0 -115 c0 -63
-2 -115 -4 -115 -2 0 -39 35 -82 78 -62 61 -98 87 -164 119 -106 51 -108 51
-205 69 -97 17 -234 16 -334 -2z m412 -524 c154 -48 267 -161 335 -337 23 -62
26 -81 26 -218 0 -141 -1 -154 -28 -220 -37 -93 -65 -141 -117 -196 -164 -174
-429 -210 -640 -87 -47 28 -137 115 -170 164 -69 105 -102 289 -79 445 11 80
51 193 83 240 29 41 110 120 153 150 43 29 121 64 164 72 70 13 210 6 273 -13z"/>
<path d="M5100 2185 c-194 -31 -353 -106 -466 -219 -123 -124 -163 -219 -171
-406 -5 -116 -3 -131 21 -204 33 -97 82 -172 150 -230 54 -47 147 -103 206
-125 19 -7 44 -16 55 -21 59 -22 132 -42 240 -65 359 -77 436 -103 488 -164
54 -64 44 -154 -23 -215 -69 -62 -97 -70 -260 -70 -129 -1 -151 2 -202 22 -79
32 -154 102 -189 177 -16 33 -29 66 -29 73 0 18 -15 16 -203 -29 -95 -22 -199
-47 -233 -55 -33 -8 -68 -14 -78 -14 -14 0 -16 -6 -10 -37 34 -190 184 -377
379 -476 184 -92 340 -121 610 -114 204 5 302 22 413 73 29 13 56 24 61 24 18
0 163 111 206 157 160 172 200 477 91 698 -60 121 -171 214 -330 276 -100 39
-143 50 -376 99 -299 62 -354 81 -404 140 -67 80 -37 186 68 238 56 28 172 46
239 37 137 -18 257 -106 283 -209 3 -15 10 -28 14 -31 4 -3 99 21 211 51 112
31 224 62 249 69 29 8 46 19 48 30 5 20 -41 132 -76 189 -97 157 -280 271
-516 322 -100 22 -359 27 -466 9z"/>
<path d="M7165 2189 c-93 -14 -232 -58 -318 -101 -106 -53 -221 -163 -272
-260 -52 -99 -65 -154 -65 -290 0 -96 4 -128 24 -187 61 -179 192 -297 417
-374 86 -29 138 -42 388 -97 283 -61 361 -109 361 -224 0 -85 -53 -146 -154
-180 -67 -22 -252 -22 -326 0 -117 35 -194 107 -238 224 -13 34 -26 54 -34 52
-7 -2 -51 -12 -98 -23 -47 -10 -134 -30 -195 -44 -60 -14 -134 -31 -162 -37
-63 -14 -64 -18 -24 -126 92 -252 287 -409 604 -484 79 -19 122 -22 302 -22
237 -1 303 9 460 71 116 46 185 91 262 169 72 74 135 192 154 292 18 96 7 282
-21 357 -51 133 -134 223 -269 294 -123 64 -211 89 -541 157 -272 55 -360 107
-360 212 0 114 103 184 274 186 118 1 212 -30 270 -89 39 -41 86 -119 86 -145
0 -5 3 -10 8 -10 9 0 208 54 353 96 64 19 123 34 132 34 25 0 27 13 12 61 -47
154 -132 265 -273 355 -29 19 -55 34 -58 34 -3 0 -30 11 -61 25 -157 72 -432
104 -638 74z"/>
<path d="M9362 2188 c-96 -13 -255 -71 -343 -124 -258 -156 -420 -399 -485
-729 -26 -131 -24 -357 5 -490 64 -292 215 -524 436 -670 170 -111 300 -153
510 -162 119 -5 138 -3 230 21 127 34 225 89 326 184 42 39 80 72 83 72 3 0 6
-54 6 -120 l0 -120 270 0 270 0 0 1050 0 1050 -270 0 -270 0 0 -115 c0 -63 -2
-115 -4 -115 -3 0 -31 27 -62 61 -63 66 -173 139 -256 171 -118 45 -290 59
-446 36z m358 -519 c120 -28 252 -125 314 -232 114 -196 116 -459 5 -655 -39
-67 -119 -149 -179 -184 -155 -90 -382 -91 -526 -2 -117 72 -210 208 -249 362
-19 75 -16 228 7 312 52 193 181 335 357 391 64 20 200 24 271 8z"/>
<path d="M3520 1100 l0 -1050 280 0 280 0 0 1050 0 1050 -280 0 -280 0 0
-1050z"/>
</g>
</svg>
